# xmcd
#
# Track frame offsets: 
#        150
#        18113
#        38956
#        67983
#        90039
#        112174
#        136816
#
# Disc length: 2102 seconds
#
# Revision: 0
# Processed by: cddbd v1.5.2PL0 Copyright (c) Steve Scherf et al.
# Submitted via: ExactAudioCopy v0.99pb3
#
DISCID=4c083407
DTITLE=Slam Allen - The Soul Workin' Man
DYEAR=1900
DGENRE=Blues
TTITLE0=Blues Is Back
TTITLE1=It Doesn't Matter To Me
TTITLE2=Must Be The Rain
TTITLE3=Got To Get Down
TTITLE4=I'll Be Waiting For Your Love
TTITLE5=Find The Strength In Your Tears
TTITLE6=A Little Rain
EXTD=
EXTT0=
EXTT1=
EXTT2=
EXTT3=
EXTT4=
EXTT5=
EXTT6=
PLAYORDER=
